<svg width="110" height="110" viewBox="0 0 110 110" fill="none" xmlns="http://www.w3.org/2000/svg">
<g clip-path="url(#clip0)">
<path d="M10.5578 38.4268C11.9493 39.4088 16.1438 42.325 23.1414 47.1742C30.1392 52.0233 35.5001 55.757 39.2241 58.3755C39.6332 58.6625 40.5025 59.2864 41.8323 60.2481C43.1623 61.2105 44.2674 61.9881 45.1467 62.5813C46.0267 63.1743 47.0905 63.8395 48.3393 64.5759C49.5876 65.3116 50.7643 65.865 51.8692 66.2314C52.9743 66.6008 53.9972 66.7837 54.9383 66.7837H55H55.0619C56.003 66.7837 57.0264 66.6005 58.1315 66.2314C59.2359 65.865 60.4137 65.311 61.6609 64.5759C62.9088 63.8386 63.9726 63.1741 64.8526 62.5813C65.7326 61.9881 66.8369 61.2105 68.1673 60.2481C69.4969 59.2856 70.3672 58.6625 70.7763 58.3755C74.5406 55.757 84.1173 49.1068 99.5037 38.4256C102.491 36.3394 104.987 33.8222 106.991 30.8756C108.998 27.9303 110 24.8405 110 21.608C110 18.9067 109.028 16.5944 107.084 14.6712C105.14 12.7476 102.837 11.7863 100.178 11.7863H9.82102C6.67019 11.7863 4.24541 12.8501 2.54711 14.9778C0.849038 17.1059 0 19.7659 0 22.9575C0 25.5356 1.12574 28.3293 3.37616 31.337C5.62636 34.3448 8.02103 36.7083 10.5578 38.4268Z" fill="#4E4B55"/>
<path d="M103.861 44.9942C90.4394 54.0782 80.2484 61.138 73.2924 66.172C70.9599 67.8901 69.0677 69.2313 67.6145 70.1923C66.1613 71.154 64.2287 72.1362 61.8138 73.1383C59.3997 74.1419 57.15 74.6422 55.0625 74.6422H55H54.9383C52.8512 74.6422 50.6002 74.1419 48.1862 73.1383C45.7721 72.1362 43.8382 71.154 42.3854 70.1923C40.9331 69.2313 39.0402 67.8901 36.7079 66.172C31.183 62.121 21.0139 55.0608 6.20016 44.9942C3.86698 43.4402 1.80039 41.6589 -0.000244141 39.6541V88.3915C-0.000244141 91.0941 0.961025 93.4051 2.88464 95.3285C4.80782 97.2525 7.12037 98.2142 9.82142 98.2142H100.179C102.879 98.2142 105.192 97.2525 107.115 95.3285C109.039 93.4045 110 91.0943 110 88.3915V39.6541C108.24 41.6174 106.194 43.3987 103.861 44.9942Z" fill="#4E4B55"/>
</g>
<defs>
<clipPath id="clip0">
<rect width="110" height="110" fill="white"/>
</clipPath>
</defs>
</svg>
