<svg width="110" height="110" viewBox="0 0 110 110" fill="none" xmlns="http://www.w3.org/2000/svg">
<path d="M89.3749 0H20.6249C9.23315 0 0 9.23315 0 20.6249V89.3749C0 100.767 9.23315 110 20.6249 110H89.3749C100.767 110 110 100.767 110 89.3749V20.6249C110 9.23315 100.767 0 89.3749 0ZM34.7599 68.7775C27.0531 68.7775 20.8105 62.5351 20.8105 54.828C20.8105 47.121 27.0529 40.8786 34.7599 40.8786C42.467 40.8786 48.7094 47.121 48.7094 54.828C48.7094 62.5351 42.4668 68.7775 34.7599 68.7775ZM75.3843 68.7775C67.6775 68.7775 61.4349 62.5351 61.4349 54.828C61.4349 47.121 67.6773 40.8786 75.3843 40.8786C83.0914 40.8786 89.3338 47.121 89.3338 54.828C89.3338 62.5351 83.0912 68.7775 75.3843 68.7775Z" fill="#4E4B55"/>
</svg>
