<svg width="110" height="110" viewBox="0 0 110 110" fill="none" xmlns="http://www.w3.org/2000/svg">
<g clip-path="url(#clip0)">
<path d="M39.6754 88.444C38.9106 88.5865 38.5764 88.9454 38.6723 89.5178C38.7676 90.0905 39.1973 90.2819 39.9611 90.0905C40.7258 89.8998 41.0597 89.565 40.9636 89.0879C40.8688 88.5631 40.4391 88.3479 39.6754 88.444Z" fill="#4E4B55"/>
<path d="M35.5932 89.0175C34.8292 89.0175 34.4474 89.2787 34.4474 89.8049C34.4474 90.4255 34.8535 90.6873 35.6647 90.592C36.4287 90.592 36.811 90.3294 36.811 89.8049C36.811 89.1851 36.4049 88.9215 35.5932 89.0175Z" fill="#4E4B55"/>
<path d="M30.0071 88.801C29.8165 89.3265 30.127 89.6837 30.9379 89.8755C31.6541 90.1607 32.1078 90.018 32.2985 89.4456C32.4419 88.9211 32.1314 88.5401 31.3676 88.2998C30.6512 88.1094 30.198 88.2742 30.0071 88.801Z" fill="#4E4B55"/>
<path d="M103.948 6.05088C99.9139 2.01721 95.0573 0 89.3746 0H20.6249C14.944 0 10.0856 2.01721 6.05088 6.05088C2.01721 10.0853 0 14.9437 0 20.6249V89.3756C0 95.057 2.01721 99.9149 6.05088 103.949C10.0853 107.983 14.944 110 20.6249 110H36.6665C37.716 110 38.5044 109.964 39.0294 109.894C39.5541 109.822 40.0788 109.511 40.6043 108.962C41.1301 108.413 41.392 107.613 41.392 106.563C41.392 106.421 41.3794 104.796 41.3558 101.693C41.3315 98.5885 41.3197 96.1301 41.3197 94.3156L39.6725 94.6023C38.6222 94.7929 37.2973 94.8769 35.6978 94.8528C34.0989 94.8288 32.4394 94.6622 30.721 94.3517C29.0015 94.0409 27.4027 93.325 25.9225 92.204C24.4431 91.081 23.3928 89.6134 22.772 87.7996L22.0556 86.1514C21.5783 85.0545 20.8268 83.8364 19.8001 82.5007C18.7735 81.1633 17.7353 80.256 16.685 79.7787L16.1836 79.4205C15.8497 79.182 15.5395 78.8943 15.2527 78.5604C14.9665 78.2255 14.7518 77.8909 14.6086 77.5578C14.4654 77.2229 14.5843 76.9483 14.9665 76.7328C15.3488 76.5183 16.0404 76.412 17.0435 76.412L18.4752 76.6264C19.4304 76.8171 20.6113 77.3895 22.0205 78.3449C23.4287 79.2996 24.5863 80.5407 25.4936 82.0681C26.5922 84.0261 27.9159 85.517 29.4683 86.5437C31.0195 87.5714 32.5834 88.0846 34.1586 88.0846C35.7339 88.0846 37.0944 87.9652 38.2407 87.7274C39.3858 87.4881 40.4601 87.1292 41.4632 86.6518C41.8929 83.4534 43.0628 80.9932 44.9719 79.2748C42.2508 78.9881 39.8042 78.5589 37.6312 77.9855C35.4595 77.4121 33.2153 76.4817 30.9001 75.1922C28.5839 73.9029 26.6625 72.3046 25.1346 70.3937C23.607 68.4829 22.3534 65.9765 21.3754 62.8742C20.3969 59.7701 19.9075 56.189 19.9075 52.1312C19.9075 46.3547 21.794 41.4364 25.5656 37.3786C23.7987 33.0342 23.9655 28.165 26.0665 22.7695C27.4511 22.3396 29.5044 22.6622 32.2255 23.7365C34.947 24.8116 36.9397 25.7309 38.2054 26.4937C39.4711 27.2567 40.4852 27.9018 41.2492 28.4276C45.6903 27.1862 50.2733 26.5656 54.9995 26.5656C59.7255 26.5656 64.3092 27.1862 68.7505 28.4276L71.4718 26.7089C73.3345 25.5626 75.5303 24.5123 78.061 23.5579C80.5914 22.6032 82.5246 22.3403 83.862 22.7703C86.0097 28.1657 86.2018 33.0349 84.4337 37.3791C88.2052 41.4374 90.0922 46.3555 90.0922 52.132C90.0922 56.1905 89.6029 59.7837 88.6244 62.9101C87.6466 66.0372 86.3821 68.5446 84.8292 70.4303C83.2781 72.3164 81.3441 73.9026 79.0289 75.1927C76.7132 76.4812 74.4693 77.4133 72.2965 77.985C70.1241 78.5584 67.6777 78.9893 64.9564 79.276C67.4374 81.4237 68.6785 84.8124 68.6785 89.4444V106.561C68.6785 107.373 68.7969 108.029 69.0357 108.53C69.276 109.031 69.6573 109.376 70.1823 109.569C70.7095 109.759 71.1728 109.879 71.5797 109.926C71.9865 109.974 72.5702 109.998 73.3342 109.998H89.3759C95.0568 109.998 99.9154 107.981 103.948 103.946C107.983 99.9119 110 95.0533 110 89.3724V20.6249C109.999 14.9437 107.982 10.0846 103.948 6.05088Z" fill="#4E4B55"/>
<path d="M21.7707 80.0652C21.4368 80.3029 21.4845 80.685 21.9142 81.2102C22.3923 81.6873 22.7738 81.7593 23.0605 81.4247C23.3944 81.1869 23.3467 80.8049 22.9163 80.2786C22.4392 79.8497 22.0574 79.7777 21.7707 80.0652Z" fill="#4E4B55"/>
<path d="M19.408 78.2747C19.2651 78.6096 19.4321 78.8963 19.9094 79.1341C20.291 79.3736 20.6023 79.3265 20.8403 78.9916C20.9833 78.6568 20.8162 78.3701 20.3389 78.1305C19.8615 77.987 19.5513 78.0352 19.408 78.2747Z" fill="#4E4B55"/>
<path d="M23.9915 82.8584C23.5613 83.0962 23.5613 83.5272 23.9915 84.147C24.4212 84.7685 24.8263 84.9351 25.2088 84.6481C25.6387 84.3135 25.6387 83.86 25.2088 83.2869C24.8273 82.6678 24.4212 82.5228 23.9915 82.8584Z" fill="#4E4B55"/>
<path d="M26.4984 86.0799C26.0685 86.4627 26.1633 86.9144 26.7849 87.4414C27.357 88.0131 27.8346 88.0851 28.2166 87.6544C28.5989 87.2734 28.5033 86.8201 27.9302 86.2949C27.358 85.723 26.8804 85.6507 26.4984 86.0799Z" fill="#4E4B55"/>
</g>
<defs>
<clipPath id="clip0">
<rect width="110" height="110" fill="white"/>
</clipPath>
</defs>
</svg>
