<svg width="110" height="110" viewBox="0 0 110 110" fill="none" xmlns="http://www.w3.org/2000/svg">
<g clip-path="url(#clip0)">
<path d="M101.878 0H8.12853C3.63945 0 0.000976562 3.52747 0.000976562 7.88126V102.115C0.000976562 106.469 3.64073 110 8.12853 110H101.878C106.366 110 110 106.467 110 102.115V7.88126C110 3.52875 106.366 0 101.878 0ZM33.3495 92.0775H16.7295V42.4138H33.3495V92.0775ZM25.0412 35.6289H24.9294C19.356 35.6289 15.7431 31.8173 15.7431 27.0454C15.7431 22.1773 19.4621 18.469 25.146 18.469C30.8304 18.469 34.327 22.1763 34.4375 27.0454C34.4375 31.8184 30.8317 35.6289 25.0412 35.6289ZM93.2599 92.0775H76.6452V65.5057C76.6452 58.829 74.2379 54.2732 68.2295 54.2732C63.633 54.2732 60.9044 57.3467 59.7063 60.3141C59.2623 61.3739 59.1523 62.8562 59.1523 64.3364V92.0765H42.5407C42.5407 92.0765 42.7581 47.0709 42.5407 42.4131H59.1549V49.4539C61.3604 46.0707 65.3017 41.2446 74.1246 41.2446C85.0603 41.2446 93.2599 48.3386 93.2599 63.6002V92.0775ZM59.0475 49.6117C59.0759 49.5652 59.1155 49.5092 59.1549 49.4547V49.6117H59.0475Z" fill="#4E4B55"/>
</g>
<defs>
<clipPath id="clip0">
<rect width="110" height="110" fill="white"/>
</clipPath>
</defs>
</svg>
